HIERARCHY
ROOT joint_Root
{
	OFFSET 0.0 0.0 0.0
	CHANNELS 6 Xposition Yposition Zposition Zrotation Xrotation Yrotation 
	JOINT Hips
	{
		OFFSET -0.726466 93.3139 -2.00062
		CHANNELS 6 Xposition Yposition Zposition Zrotation Xrotation Yrotation 
		JOINT Spine
		{
			OFFSET 15.7357 0.0 0.0
			CHANNELS 6 Xposition Yposition Zposition Zrotation Xrotation Yrotation 
			JOINT Chest
			{
				OFFSET 8.98455 -0.406207 0.0
				CHANNELS 6 Xposition Yposition Zposition Zrotation Xrotation Yrotation 
				JOINT Neck
				{
					OFFSET 16.3773 0.0 0.0
					CHANNELS 6 Xposition Yposition Zposition Zrotation Xrotation Yrotation 
					JOINT Head
					{
						OFFSET 6.45672 0.0 0.0
						CHANNELS 6 Xposition Yposition Zposition Zrotation Xrotation Yrotation 
						End Site
						{
							OFFSET 0.0 0.0 0.0
						}
					}
				}
				JOINT Shoulder_L
				{
					OFFSET 12.9942 -0.242716 4.98039
					CHANNELS 6 Xposition Yposition Zposition Zrotation Xrotation Yrotation 
					JOINT UpperArm_L
					{
						OFFSET 5.34809 0.0 0.0
						CHANNELS 6 Xposition Yposition Zposition Zrotation Xrotation Yrotation 
						JOINT LowerArm_L
						{
							OFFSET 24.3286 1.87007e-05 0.0
							CHANNELS 6 Xposition Yposition Zposition Zrotation Xrotation Yrotation 
							JOINT Hand_L
							{
								OFFSET 22.2916 0.0 0.0
								CHANNELS 6 Xposition Yposition Zposition Zrotation Xrotation Yrotation 
								End Site
								{
									OFFSET 0.0 0.0 0.0
								}
							}
						}
					}
				}
				JOINT Shoulder_R
				{
					OFFSET 12.9945 -0.242716 -4.98039
					CHANNELS 6 Xposition Yposition Zposition Zrotation Xrotation Yrotation 
					JOINT UpperArm_R
					{
						OFFSET -5.34813 0.0 0.0
						CHANNELS 6 Xposition Yposition Zposition Zrotation Xrotation Yrotation 
						JOINT LowerArm_R
						{
							OFFSET -24.3289 0.000322201 0.0
							CHANNELS 6 Xposition Yposition Zposition Zrotation Xrotation Yrotation 
							JOINT Hand_R
							{
								OFFSET -22.2915 -0.000108084 0.0
								CHANNELS 6 Xposition Yposition Zposition Zrotation Xrotation Yrotation 
								End Site
								{
									OFFSET 0.0 0.0 0.0
								}
							}
						}
					}
				}
			}
		}
		JOINT UpperLeg_L
		{
			OFFSET -2.19248 -6.46944 0.0
			CHANNELS 6 Xposition Yposition Zposition Zrotation Xrotation Yrotation 
			JOINT LowerLeg_L
			{
				OFFSET 39.0811 0.0 -1.23785e-05
				CHANNELS 6 Xposition Yposition Zposition Zrotation Xrotation Yrotation 
				JOINT Foot_L
				{
					OFFSET 40.9854 0.0 -1.26872e-05
					CHANNELS 6 Xposition Yposition Zposition Zrotation Xrotation Yrotation 
					JOINT Toes_L
					{
						OFFSET 11.7543 0.0 0.0
						CHANNELS 6 Xposition Yposition Zposition Zrotation Xrotation Yrotation 
						End Site
						{
							OFFSET 0.0 0.0 0.0
						}
					}
				}
			}
		}
		JOINT UpperLeg_R
		{
			OFFSET -2.19251 6.46944 0.0
			CHANNELS 6 Xposition Yposition Zposition Zrotation Xrotation Yrotation 
			JOINT LowerLeg_R
			{
				OFFSET -39.0811 -0.00228153 -0.0401928
				CHANNELS 6 Xposition Yposition Zposition Zrotation Xrotation Yrotation 
				JOINT Foot_R
				{
					OFFSET -40.9854 0.0 0.0
					CHANNELS 6 Xposition Yposition Zposition Zrotation Xrotation Yrotation 
					JOINT Toes_R
					{
						OFFSET -11.7543 0.0 0.0
						CHANNELS 6 Xposition Yposition Zposition Zrotation Xrotation Yrotation 
						End Site
						{
							OFFSET 0.0 0.0 0.0
						}
					}
				}
			}
		}
	}
}
MOTION
Frames:	4
Frame Time:	0.0333333
0.000000 0.000000 0.000000 0.000000 0.000000 -0.000000 0.082428 92.210600 -0.135486 87.872300 -1.412240 4.824860 15.735700 0.000005 -0.000001 98.101300 85.488200 -98.950400 8.984550 -0.406207 -0.000000 1.178270 1.319880 -1.710550 16.377300 -0.000001 -0.000001 4.212510 -2.501700 0.931413 6.456720 -0.000001 -0.000000 1.254120 -2.642280 -3.386610 12.994200 -0.242716 4.980390 -89.993400 -0.021111 -72.673700 5.348090 -0.000007 -0.000001 -66.841700 38.811600 -13.502600 24.328600 0.000019 0.000005 0.689039 1.626530 -22.961100 22.291600 -0.000001 0.000005 5.630160 5.486780 -6.009940 12.994500 -0.242716 -4.980390 89.287600 2.338800 -73.054700 -5.348130 -0.000001 -0.000004 -71.657900 -23.803700 -85.264100 -24.328900 0.000322 -0.000009 18.868000 -0.929453 -92.718300 -22.291500 -0.000108 -0.000004 27.362600 5.333290 -0.881825 -2.192480 -6.469440 -0.000000 -175.906000 -5.832960 -1.580750 39.081100 -0.000007 -0.000012 -0.106320 0.246317 23.346900 40.985400 -0.000006 -0.000013 0.087374 2.147820 -67.169800 11.754300 -0.000000 0.000003 -0.000050 -0.000564 -16.599400 -2.192510 6.469440 -0.000001 179.188000 12.785000 -179.519000 -39.081100 -0.002282 -0.040193 0.003688 -0.000996 20.206200 -40.985400 0.000008 0.000006 4.250870 7.394320 -66.430400 -11.754300 -0.000006 -0.000006 -0.008273 -0.090250 -20.248400
0.000000 0.000000 0.000000 0.000000 0.000000 -0.000000 0.102859 92.208700 -0.146382 87.877300 -1.433670 4.841930 15.735700 0.000005 -0.000001 97.855600 85.474800 -98.693300 8.984550 -0.406207 -0.000000 1.209730 1.284350 -1.687580 16.377300 -0.000001 -0.000001 4.236770 -2.556310 0.989983 6.456720 -0.000001 -0.000000 1.223720 -2.679180 -3.334700 12.994200 -0.242716 4.980390 -90.002900 0.009171 -72.662900 5.348090 -0.000007 -0.000001 -66.969300 38.918000 -13.456000 24.328600 0.000019 0.000005 0.696959 1.645510 -22.957700 22.291600 -0.000001 0.000005 5.589970 5.487760 -6.048280 12.994500 -0.242716 -4.980390 89.279900 2.357510 -73.010400 -5.348130 -0.000001 -0.000004 -71.573700 -23.975000 -85.332200 -24.328900 0.000322 -0.000009 19.309100 -0.907271 -92.588300 -22.291500 -0.000108 -0.000004 27.096000 5.335660 -0.951221 -2.192480 -6.469440 -0.000000 -175.938000 -5.726610 -1.575760 39.081100 -0.000007 -0.000012 -0.104993 0.243083 23.360700 40.985400 -0.000006 -0.000013 0.079734 2.059990 -67.173900 11.754300 -0.000000 0.000003 -0.000047 -0.000535 -16.598400 -2.192510 6.469440 -0.000001 179.163000 12.796800 -179.525000 -39.081100 -0.002282 -0.040193 0.002551 0.002087 20.241700 -40.985400 0.000008 0.000006 4.295060 7.423340 -66.448700 -11.754300 -0.000006 -0.000006 -0.008394 -0.091219 -20.288000
0.000000 0.000000 0.000000 0.000000 0.000000 -0.000000 0.105992 92.211900 -0.157584 87.873200 -1.431310 4.819980 15.735700 0.000005 -0.000001 97.813900 85.471500 -98.642700 8.984550 -0.406207 -0.000000 1.217020 1.278150 -1.669820 16.377300 -0.000001 -0.000001 4.289800 -2.624090 1.055210 6.456720 -0.000001 -0.000000 1.151770 -2.779560 -3.178740 12.994200 -0.242716 4.980390 -89.998700 -0.004266 -72.671500 5.348090 -0.000007 -0.000001 -67.166000 38.970000 -13.382000 24.328600 0.000019 0.000005 0.694333 1.643980 -22.899300 22.291600 -0.000001 0.000005 5.491540 5.485780 -5.970810 12.994500 -0.242716 -4.980390 89.292400 2.311210 -72.971800 -5.348130 -0.000001 -0.000004 -71.541100 -24.282900 -85.279500 -24.328900 0.000322 -0.000009 19.386800 -0.900761 -92.558700 -22.291500 -0.000108 -0.000004 26.907600 5.333550 -0.889601 -2.192480 -6.469440 -0.000000 -175.947000 -5.694910 -1.607650 39.081100 -0.000007 -0.000012 -0.105588 0.244536 23.354100 40.985400 -0.000006 -0.000013 0.068773 1.996160 -67.157800 11.754300 -0.000000 0.000003 -0.000059 -0.000652 -16.602800 -2.192510 6.469440 -0.000001 179.179000 12.769000 -179.546000 -39.081100 -0.002282 -0.040193 0.003857 -0.001454 20.226600 -40.985400 0.000008 0.000006 4.337160 7.411800 -66.443800 -11.754300 -0.000006 -0.000006 -0.008452 -0.091679 -20.306800
0.000000 0.000000 0.000000 0.000000 0.000000 -0.000000 0.112720 92.215800 -0.169070 87.877200 -1.450220 4.794070 15.735700 0.000005 -0.000001 97.792900 85.460900 -98.629800 8.984550 -0.406207 -0.000000 1.238600 1.278040 -1.686230 16.377300 -0.000001 -0.000001 4.313620 -2.672010 1.155850 6.456720 -0.000001 -0.000000 1.059280 -2.869470 -2.823880 12.994200 -0.242716 4.980390 -89.994600 -0.017139 -72.636800 5.348090 -0.000007 -0.000001 -67.247500 39.183000 -13.336000 24.328600 0.000019 0.000005 0.627104 1.488320 -22.849600 22.291600 -0.000001 0.000005 5.586170 5.486730 -6.008080 12.994500 -0.242716 -4.980390 89.292100 2.309240 -72.951300 -5.348130 -0.000001 -0.000004 -71.445900 -24.691600 -85.088300 -24.328900 0.000322 -0.000009 19.436600 -0.895499 -92.536700 -22.291500 -0.000108 -0.000004 26.867800 5.332000 -0.844183 -2.192480 -6.469440 -0.000000 -175.959000 -5.717880 -1.626850 39.081100 -0.000007 -0.000012 -0.105744 0.245176 23.330600 40.985400 -0.000006 -0.000013 0.075258 1.992640 -67.140400 11.754300 -0.000000 0.000003 -0.000044 -0.000507 -16.597300 -2.192510 6.469440 -0.000001 179.182000 12.779000 -179.574000 -39.081100 -0.002282 -0.040193 0.005265 -0.005280 20.213800 -40.985400 0.000008 0.000006 4.363790 7.427880 -66.433600 -11.754300 -0.000006 -0.000006 -0.008398 -0.091254 -20.289400
